<svg viewBox="0 0 48 48" fill="none" xmlns="http://www.w3.org/2000/svg">
  <defs>
    <linearGradient id="qe-bg" x1="0%" y1="0%" x2="100%" y2="100%">
      <stop offset="0%" stop-color="#0f172a"/>
      <stop offset="100%" stop-color="#1e293b"/>
    </linearGradient>
    <linearGradient id="qe-green" x1="0%" y1="0%" x2="100%" y2="100%">
      <stop offset="0%" stop-color="#10b981"/>
      <stop offset="50%" stop-color="#059669"/>
      <stop offset="100%" stop-color="#047857"/>
    </linearGradient>
    <linearGradient id="qe-purple" x1="0%" y1="100%" x2="100%" y2="0%">
      <stop offset="0%" stop-color="#6366f1"/>
      <stop offset="100%" stop-color="#8b5cf6"/>
    </linearGradient>
    <linearGradient id="qe-gold" x1="0%" y1="0%" x2="100%" y2="100%">
      <stop offset="0%" stop-color="#fbbf24"/>
      <stop offset="100%" stop-color="#f59e0b"/>
    </linearGradient>
  </defs>
  
  <rect x="0" y="0" width="48" height="48" rx="10" fill="url(#qe-bg)"/>
  <rect x="1" y="1" width="46" height="46" rx="9" stroke="url(#qe-green)" stroke-width="2" fill="none"/>
  
  <path d="M10 32 L16 24 L22 28 L28 18 L34 22" stroke="url(#qe-green)" stroke-width="3" stroke-linecap="round" stroke-linejoin="round" fill="none"/>
  
  <circle cx="34" cy="22" r="3" fill="url(#qe-gold)"/>
  
  <path d="M10 36 L10 32" stroke="url(#qe-purple)" stroke-width="2.5" stroke-linecap="round"/>
  <path d="M16 36 L16 24" stroke="url(#qe-purple)" stroke-width="2.5" stroke-linecap="round"/>
  <path d="M22 36 L22 28" stroke="url(#qe-purple)" stroke-width="2.5" stroke-linecap="round"/>
  <path d="M28 36 L28 18" stroke="url(#qe-purple)" stroke-width="2.5" stroke-linecap="round"/>
  <path d="M34 36 L34 22" stroke="url(#qe-purple)" stroke-width="2.5" stroke-linecap="round"/>
  
  <text x="24" y="14" text-anchor="middle" font-size="9" font-weight="700" font-family="system-ui, -apple-system, sans-serif" fill="url(#qe-green)" letter-spacing="0.5">QE</text>
</svg>
